<?xml version="1.0" standalone="no"?>
<!DOCTYPE svg PUBLIC "-//W3C//DTD SVG 1.1//EN" "http://www.w3.org/Graphics/SVG/1.1/DTD/svg11.dtd" >
<svg xmlns="http://www.w3.org/2000/svg">
<metadata>Generated by IcoMoon</metadata>
<defs>
<font id="icomoon" horiz-adv-x="1024">
<font-face units-per-em="1024" ascent="960" descent="-64" />
<missing-glyph horiz-adv-x="1024" />
<glyph unicode="&#x20;" d="" horiz-adv-x="512" />
<glyph unicode="&#xe600;" d="M960 128l-249.125 249.125c35.563 58.063 57.125 125.719 57.125 198.875 0 212.031-172 384-384 384-212.031 0-384-171.969-384-384 0-212 171.969-384 384-384 73.156 0 140.812 21.562 198.875 57l249.125-249c17.5-17.5 46.5-17.375 64 0l64 64c17.5 17.5 17.5 46.5 0 64zM384 320c-141.375 0-256 114.625-256 256s114.625 256 256 256 256-114.625 256-256-114.625-256-256-256z" horiz-adv-x="973" />
<glyph unicode="&#xe601;" d="M649.154 802.291h-70.308c0 0-12.424 132.901-17.528 140.023-7.438 10.524-28.843 17.686-49.022 17.686-20.218 0-44.472-7.161-51.95-17.686-5.064-7.161-14.639-140.023-14.639-140.023h-70.11c-7.438 0-14.283-4.075-17.765-10.604-3.482-6.489-3.086-14.402 1.068-20.574 53.691-79.408 137.491-156.641 141.012-159.45 3.6-2.849 8.032-4.313 12.463-4.313 4.392 0 8.784 1.424 12.463 4.313 3.6 2.809 87.322 80.041 141.012 159.489 4.115 6.133 4.51 14.006 1.029 20.535-3.521 6.528-10.327 10.604-17.725 10.604zM524.048 284.297c-3.6 2.849-8.032 4.313-12.463 4.313-4.392 0-8.784-1.424-12.463-4.313-3.6-2.809-87.322-80.041-141.052-159.45-4.115-6.133-4.51-14.006-1.029-20.535 3.521-6.528 10.327-10.604 17.725-10.604h70.308c0 0 12.424-132.901 17.528-140.023 7.438-10.524 28.843-17.686 49.022-17.686 20.218 0 44.472 7.161 51.95 17.686 5.064 7.161 14.639 140.023 14.639 140.023h70.11c7.438 0 14.283 4.075 17.765 10.604 3.482 6.489 3.126 14.402-1.029 20.535-53.691 79.408-137.491 156.641-141.012 159.45zM1006.275 499.574c-7.161 5.064-140.023 14.639-140.023 14.639v70.11c0 7.438-4.075 14.283-10.604 17.765-6.489 3.482-14.402 3.126-20.535-1.029-79.408-53.691-156.641-137.491-159.45-141.012-2.849-3.6-4.313-8.032-4.313-12.463 0-4.392 1.424-8.784 4.313-12.463 2.809-3.6 80.041-87.322 159.45-141.052 6.133-4.115 14.006-4.51 20.535-1.029 6.528 3.521 10.604 10.327 10.604 17.725v70.308c0 0 132.901 12.424 140.023 17.528 10.524 7.438 17.686 28.843 17.686 49.022 0 20.218-7.161 44.472-17.686 51.95zM188.847 601.891c-6.133 4.115-14.006 4.51-20.535 1.029-6.528-3.521-10.604-10.327-10.604-17.725v-70.308c0 0-132.901-12.424-140.023-17.528-10.524-7.438-17.686-28.843-17.686-49.022 0-20.218 7.161-44.472 17.686-51.95 7.161-5.064 140.023-14.639 140.023-14.639v-70.11c0-7.438 4.075-14.283 10.604-17.765 6.489-3.482 14.402-3.126 20.535 1.029 79.408 53.691 156.641 137.491 159.45 141.012 2.849 3.6 4.313 8.032 4.313 12.463 0 4.392-1.424 8.784-4.313 12.463-2.809 3.6-80.041 87.322-159.45 141.052zM591.112 447.98c0-43.703-35.428-79.131-79.131-79.131s-79.131 35.428-79.131 79.131c0 43.703 35.428 79.131 79.131 79.131s79.131-35.428 79.131-79.131z" />
<glyph unicode="&#xe602;" d="M957.655 332.37c-11.039 32.993-58.235 53.729-83.661 64.911-2.345 1.044-5.54 2.222-9.257 3.584-14.787 5.478-37.14 13.763-40.468 26.358-4.608 17.582 6.4 31.887 17.050 45.711 3.994 5.151 8.11 10.486 11.162 15.913 11.735 20.89 20.398 47.8 22.077 68.577 3.041 37.458-5.857 68.649-25.764 90.214-20.378 22.118-50.483 32.143-86.518 27.965-48.66-5.591-81.039-41.073-84.48-92.59-2.724-40.653 8.714-77.916 34.898-113.93 1.403-1.925 2.796-3.738 4.168-5.478l0.809-1.044c6.84-8.673 12.749-16.159 11.622-28.119-1.516-15.657-16.64-21.381-28.815-25.979l-4.628-1.802c-13.885-5.591-29.112-14.008-37.827-18.831l-14.582-8.202c0.727-0.348 1.423-0.655 2.161-1.014 2.161-1.034 4.362-2.099 6.584-3.215 38.257-19.19 60.477-39.26 67.881-61.358 2.98-8.878 5.499-31.857 0-46.080-2.335-6.072-6.339-11.643-12.237-17.019-0.932-0.85-2.068-1.577-3.103-2.376l3.738-0.276c25.395-1.956 50.821-2.202 67.717-2.202 70.277 0 165.55 4.782 181.504 46.131 4.782 12.431 2.55 32.451-0.031 40.151zM948.111 295.885c-10.127-26.266-67.983-39.578-171.94-39.578-14.766 0-41.523-1.874-63.58-0.492 1.065 1.905 3.553 3.881 4.301 5.786 7.373 19.159 4.854 47.032 1.812 56.044-7.414 22.118-30.894 37.53-63.027 55.972l7.864 5.54c7.977 4.424 22.825 12.626 36.065 17.961l4.536 1.761c13.22 4.997 33.208 12.564 35.348 34.58 1.505 16.046-6.246 25.907-13.752 35.41l-0.799 1.034c-1.3 1.659-2.642 3.369-3.963 5.192-24.73 33.997-35.523 69.079-32.983 107.244 3.103 46.264 32 78.1 75.438 83.108 32.707 3.738 59.699-5.089 77.844-24.74 17.879-19.415 25.856-47.923 23.071-82.442-1.577-19.415-9.738-44.698-20.797-64.389-2.683-4.762-6.595-9.8-10.353-14.674-11.018-14.305-24.73-32.123-18.842-54.579 4.68-17.736 29.020-26.757 46.94-33.413 3.4-1.239 6.38-2.335 8.663-3.328 23.9-10.496 68.383-30.065 77.978-58.737 2.14-6.369 3.82-23.808 0.174-33.26zM308.255 263.188c-8.305 13.22-9.82 29-4.608 48.23 7.383 27.218 40.141 47.35 70.267 64.072l6.185 3.43c0.625 0.358 1.434 0.778 2.109 1.157l-4.946 2.632c-11.397 6.062-22.569 10.967-30.72 14.572-2.355 1.044-5.55 2.222-9.247 3.584-14.787 5.478-37.14 13.763-40.479 26.358-4.608 17.582 6.4 31.887 17.111 45.804 4.178 5.437 8.131 10.568 11.080 15.811 11.735 20.89 20.408 47.811 22.088 68.577 3.031 37.458-5.868 68.649-25.754 90.214-20.388 22.118-50.452 32.143-86.528 27.965-48.64-5.591-81.009-41.073-84.48-92.59-2.714-40.653 8.704-77.926 34.908-113.94 1.608-2.212 3.226-4.28 4.987-6.513 6.83-8.673 12.739-16.159 11.592-28.129-1.526-15.677-16.64-21.391-28.815-25.989l-4.618-1.792c-14.029-5.642-29.297-14.111-37.796-18.821l-1.833-1.024c-26.921-14.879-56.187-32.748-62.669-56.668-4.557-16.794-3.236-30.556 4.024-42.107 13.906-22.108 47.288-30.536 71.188-34.949 34.99-6.472 73.789-7.014 107.418-7.014 14.438 0 41.298 0 69.376 2.273l4.045 0.317c-1.034 0.829-2.15 1.587-3.144 2.447-4.905 4.321-8.202 8.049-10.742 12.093zM248.709 256.297c-33.167 0-71.424 0.532-105.554 6.82-22.006 4.065-52.613 11.653-64.379 30.351-5.652 9.001-6.574 20.111-2.806 33.966 5.437 20.060 32.645 36.526 57.743 50.401l2.14 1.178c8.008 4.454 22.907 12.708 36.28 18.094l4.516 1.751c13.23 4.997 33.208 12.554 35.348 34.58 1.536 16.067-6.226 25.917-13.926 35.686-1.495 1.894-3.031 3.85-4.567 5.96-24.73 33.997-35.512 69.079-32.963 107.233 3.113 46.275 32.010 78.111 75.428 83.108 4.864 0.553 9.646 0.84 14.223 0.84 26.184 0 48.179-8.847 63.611-25.58 17.9-19.415 25.866-47.923 23.071-82.442-1.567-19.415-9.738-44.687-20.808-64.389-2.58-4.608-6.318-9.452-10.332-14.674-11.018-14.305-24.73-32.123-18.842-54.579 4.69-17.756 29.041-26.778 46.94-33.413 3.389-1.239 6.369-2.335 8.561-3.297 5.99-2.632 23.419-8.387 31.519-12.401-27.351-16.241-62.29-34.877-69.55-61.737-5.929-21.862-1.065-40.663 8.376-56.504-24.003-1.536-50.473-0.952-64.031-0.952zM704.799 256.502c3.011 3.901 5.018 7.301 6.339 10.721 5.96 15.483 2.877 38.943 0 47.503-7.148 21.32-27.443 40.643-62.044 59.054l-8.264 4.393 2.601 1.475c-1.495 0.696-3 1.413-4.444 2.068-4.874 2.263-9.462 4.28-13.568 6.103l-1.065 0.471c-2.683 1.167-6.298 2.519-10.455 4.055-16.916 6.236-42.486 15.647-46.295 30.075-5.263 20.019 7.301 36.321 19.436 52.122 4.577 5.929 9.298 12.063 12.759 18.196 13.445 23.91 23.337 54.702 25.272 78.449 3.461 42.865-6.728 78.551-29.481 103.199-23.347 25.334-58.348 36.69-99.021 32.020-55.675-6.41-92.713-47.022-96.666-105.964-3.123-46.52 9.933-89.149 39.905-130.314 1.823-2.509 3.666-4.854 5.704-7.434 7.803-9.892 14.541-18.432 13.22-32.072-1.71-17.766-18.913-24.31-32.748-29.563l-5.335-2.058c-9.605-3.86-20.879-9.308-34.406-16.66-1.516-0.809-2.765-1.505-4.055-2.232l3.267-1.741-8.090-4.598c-28.14-16.005-57.846-35.86-64.86-61.757-5.304-19.558-3.666-36.372 4.874-49.93 0.881-1.403 1.956-2.642 3.021-3.912l7.424-9.032-5.704-0.461c1.434-1.147 2.806-2.355 4.362-3.389 2.836-1.925 5.775-3.697 8.94-5.366 17.971-9.288 39.567-13.988 54.252-16.712 40.018-7.393 84.367-7.997 122.808-7.997 39.25 0 131.185 0 178.862 24.709 3.215 1.659 6.226 3.451 9.021 5.335 1.546 1.055 2.908 2.222 4.342 3.328l-5.704 0.44 5.796 7.475zM380.293 367.35l4.762 2.621c1.833 1.034 3.809 2.12 6.072 3.328 13.22 7.178 24.125 12.472 33.3 16.148l5.243 2.007c14.725 5.601 36.966 14.039 39.281 38.154 1.72 17.736-6.963 28.754-15.616 39.721-1.7 2.15-3.461 4.393-5.212 6.799-28.508 39.148-40.929 79.575-37.97 123.597 3.594 53.699 37.171 90.665 87.613 96.481 37.315 4.25 69.233-5.919 90.337-28.805 20.736-22.497 30.024-55.501 26.788-95.437-1.823-22.385-11.233-51.528-23.992-74.25-3.103-5.489-7.588-11.325-11.971-17.009-12.36-16.056-27.75-36.045-21.217-60.938 5.171-19.569 32.635-29.655 52.654-37.048 3.922-1.454 7.383-2.734 9.882-3.82l1.065-0.471c4.055-1.792 8.612-3.799 13.445-6.031 2.099-0.952 4.219-1.946 6.431-3.011 2.089-1.004 4.209-2.028 6.4-3.144 35.727-17.92 56.269-36.055 62.781-55.46 2.386-7.219 4.628-27.546 0.154-39.158-1.761-4.547-4.895-8.847-9.585-13.128-1.905-1.71-4.055-3.277-6.298-4.813-2.437-1.659-5.1-3.246-7.956-4.721-45.466-23.583-135.66-23.583-174.162-23.583-37.98 0-81.777 0.625-120.945 7.844-14.039 2.611-34.642 7.055-51.374 15.718-2.785 1.485-5.427 3.092-7.987 4.823-2.335 1.536-4.434 3.256-6.441 5.018-4.106 3.625-6.83 6.656-8.827 9.82-6.707 10.68-7.813 23.798-3.4 40.12 6.042 22.272 34.98 40.94 65.352 57.795zM720.056 267.96c5.499 14.223 2.98 37.202 0 46.080-7.404 22.098-29.624 42.168-67.881 61.358-2.222 1.116-4.424 2.191-6.584 3.215-0.737 0.348-1.434 0.655-2.161 1.014l-2.601-1.475 8.264-4.393c34.601-18.412 54.886-37.734 62.044-59.054 2.877-8.561 5.96-32.020 0-47.503-1.321-3.42-3.328-6.82-6.339-10.721l-5.775-7.496 5.704-0.44c1.034 0.799 2.171 1.526 3.103 2.376 5.888 5.396 9.902 10.967 12.227 17.039zM320.42 258.14c-1.065 1.27-2.14 2.509-3.021 3.912-8.54 13.558-10.179 30.372-4.874 49.93 7.014 25.897 36.721 45.763 64.86 61.757l8.090 4.598-3.267 1.741c-0.676-0.379-1.485-0.799-2.109-1.157l-6.185-3.43c-30.126-16.722-62.884-36.854-70.267-64.072-5.212-19.231-3.697-35.011 4.608-48.23 2.54-4.055 5.837-7.772 10.742-12.093 0.993-0.86 2.109-1.618 3.144-2.447l5.704 0.461-7.424 9.032z" />
<glyph unicode="&#xe603;" d="M909.046 387.738c-2.437 1.075-5.745 2.294-9.503 3.666-17.951 6.646-42.547 15.729-46.838 32.010-5.622 21.432 7.578 38.574 19.22 53.688 4.383 5.693 8.509 11.059 11.5 16.364 12.206 21.74 21.207 49.674 22.958 71.178 3.113 38.554-5.919 70.502-26.143 92.426-17.592 19.067-42.537 29.143-72.141 29.143-5.151 0-10.476-0.317-15.841-0.932-49.285-5.673-82.094-41.718-85.596-94.054-2.816-42.199 9.073-80.927 36.332-118.395 1.751-2.406 3.523-4.649 5.212-6.799 7.711-9.789 15.002-19.026 13.568-34.038-1.946-20.173-20.685-27.249-34.335-32.42l-4.884-1.874c-14.879-5.99-31.119-15.022-39.864-19.855l-1.956-1.096c-2.56-1.413-5.13-2.877-7.711-4.342 28.672-15.247 59.156-36.803 69.059-66.304 3.4-10.117 6.861-36.506-0.092-54.559-1.802-4.669-4.495-8.868-7.567-12.861 24.596-1.905 49.428-2.335 72.079-2.335 42.424 0 171.5 0 189.194 45.865 4.608 11.95 2.386 31.949-0.092 39.322-11.059 33.055-60.17 54.61-86.559 66.202zM281.467 302.879c8.018 29.614 40.212 51.354 72.018 69.437-11.878 6.328-23.521 11.469-32.522 15.421-2.437 1.075-5.745 2.294-9.492 3.666-17.951 6.646-42.537 15.729-46.838 32.010-5.612 21.432 7.578 38.574 19.21 53.688 4.383 5.693 8.52 11.059 11.5 16.364 12.206 21.74 21.217 49.674 22.958 71.178 3.123 38.554-5.919 70.502-26.132 92.426-17.582 19.067-42.527 29.143-72.131 29.143-5.151 0-10.486-0.317-15.852-0.932-49.285-5.673-82.074-41.718-85.596-94.054-2.816-42.199 9.073-80.927 36.332-118.395 1.751-2.406 3.512-4.649 5.212-6.799 7.711-9.789 14.991-19.026 13.558-34.038-1.956-20.173-20.664-27.249-34.324-32.42l-4.874-1.874c-14.889-5.99-31.13-15.022-39.854-19.855l-1.966-1.096c-27.843-15.391-58.071-33.761-64.451-57.313-4.454-16.415-3.256-29.727 3.656-40.724 13.732-21.842 47.995-30.413 72.561-34.949 37.028-6.84 78.264-7.414 114.002-7.414 15.903 0 44.001 0 73.841 2.417-1.7 2.068-3.512 4.035-4.946 6.298-9.994 15.882-11.96 35.338-5.868 57.815zM729.651 256.297c5.345 13.855 2.775 37.038-0.092 45.599-9.267 27.658-41.431 48.241-69.96 62.556-2.345 1.178-4.649 2.304-6.932 3.4-2.376 1.137-4.7 2.222-6.984 3.267-5.632 2.601-10.926 4.925-15.575 6.984-2.785 1.219-6.574 2.621-10.885 4.209-20.326 7.496-48.189 17.787-52.972 35.932-6.308 24.054 8.622 43.438 21.78 60.539 5.038 6.523 9.779 12.698 13.23 18.821 14.008 24.955 24.361 57.037 26.358 81.736 3.584 44.319-6.83 81.080-30.116 106.332-20.275 21.985-49.029 33.618-83.149 33.618-5.929 0-12.052-0.358-18.217-1.065-56.801-6.543-94.597-48.067-98.642-108.37-3.246-48.456 10.383-92.918 41.687-135.916 2.007-2.755 4.024-5.315 5.97-7.782 8.714-11.039 16.937-21.463 15.309-38.257-2.161-22.426-23.204-30.413-38.554-36.239l-5.632-2.171c-12.616-5.069-26.132-12.073-36.301-17.592-2.427-1.3-4.567-2.488-6.554-3.594-0.829-0.451-1.7-0.932-2.437-1.341l-2.642-1.464c-0.502-0.266-1.014-0.573-1.505-0.86-31.56-17.521-65.321-38.41-72.591-65.229-5.151-19.016-3.758-34.499 4.291-47.288 2.775-4.413 6.441-8.182 10.455-11.715 2.355-2.068 4.803-4.055 7.496-5.847 2.877-1.935 5.868-3.758 9.032-5.417 17.725-9.175 39.229-14.172 56.556-17.388 42.394-7.823 89.58-8.468 130.478-8.468 42.271 0 139.325 0.113 188.989 25.846 3.236 1.679 6.267 3.482 9.073 5.386 2.621 1.782 5.14 3.625 7.342 5.622 5.233 4.782 9.359 10.097 11.694 16.159z" />
<glyph unicode="&#xe604;" d="M1276.249 110.046c0-96.123-77.923-174.046-174.046-174.046s-174.046 77.923-174.046 174.046c0 96.123 77.923 174.046 174.046 174.046s174.046-77.923 174.046-174.046zM2204.405 785.954c0-96.123-77.923-174.046-174.046-174.046s-174.046 77.923-174.046 174.046c0 96.123 77.923 174.046 174.046 174.046s174.046-77.923 174.046-174.046zM3132.561 110.046c0-96.123-77.923-174.046-174.046-174.046s-174.046 77.923-174.046 174.046c0 96.123 77.923 174.046 174.046 174.046s174.046-77.923 174.046-174.046zM4060.718 785.954c0-96.123-77.923-174.046-174.046-174.046s-174.046 77.923-174.046 174.046c0 96.123 77.923 174.046 174.046 174.046s174.046-77.923 174.046-174.046zM348.092 785.954c0-96.123-77.923-174.046-174.046-174.046s-174.046 77.923-174.046 174.046c0 96.123 77.923 174.046 174.046 174.046s174.046-77.923 174.046-174.046zM4988.874 110.046c0-96.123-77.923-174.046-174.046-174.046s-174.046 77.923-174.046 174.046c0 96.123 77.923 174.046 174.046 174.046s174.046-77.923 174.046-174.046zM5917.030 785.954c0-96.123-77.923-174.046-174.046-174.046s-174.046 77.923-174.046 174.046c0 96.123 77.923 174.046 174.046 174.046s174.046-77.923 174.046-174.046zM1624.138 589.535l-261.847-236.432 90.639-100.305 261.711 236.365 54.816-62.251-25.82 190.133-175.060 34.066zM783.985 420.017l-268.268 228.997-87.733-102.738 268.2-228.997-54.613-62.386 185.199 50.22 11.085 177.966zM2649.963 420.017l-268.268 228.997-87.8-102.738 268.268-228.997-54.613-62.386 185.199 50.22 11.085 177.966zM4515.941 420.017l-268.335 228.997-87.733-102.738 268.268-228.997-54.613-62.386 185.199 50.22 11.085 177.966zM3490.049 589.535l-261.779-236.432 90.639-100.237 261.711 236.297 54.816-62.183-25.82 190.065-175.060 34.066zM5356.095 589.535l-261.779-236.432 90.572-100.237 261.779 236.297 54.749-62.183-25.82 190.065-175.060 34.066z" horiz-adv-x="5917" />
<glyph unicode="&#xe605;" d="M741.775 910.234v-866.714h-524.38v-22.938l-33.997-27.146v50.084h-13.926v866.714h13.926v6.554h33.997v-6.554zM854.497 880.466v-807.281c0-16.282-13.076-29.594-29.655-29.594h-49.060v866.744h49.080c16.558 0 29.635-13.322 29.635-29.87zM741.816 43.5h34.058v-13.076h-34.058v13.076zM741.816 923.32h34.058v-13.076h-34.058v13.076z" />
<glyph unicode="&#xe607;" d="M806.009 79.296c8.948 23.223 4.474 63.875-0.306 78.313-12.993 38.808-53.972 75.077-125.247 110.916-4.372 2.212-8.6 4.28-12.768 6.287-4.413 2.13-8.641 4.116-12.829 6.021-9.663 4.464-18.753 8.478-26.823 12.062l-2.125 0.942c-4.985 2.171-11.889 4.731-19.713 7.639-39.938 14.786-94.727 34.958-105.043 74.094-13.033 49.785 17.671 89.761 42.328 121.872 8.743 11.366 17.691 23.039 23.881 34.016 25.454 45.443 44.228 103.727 47.864 148.495 6.435 79.869-12.073 145.874-53.441 190.867-42.103 45.751-105.779 66.087-180.22 57.608-100.631-11.632-167.616-85.562-174.786-192.955-5.904-88.040 18.876-168.892 75.749-247.184 3.493-4.813 7.007-9.298 10.398-13.598 17.262-21.933 34.585-43.969 31.153-79.439-4.617-48.208-48.987-65.104-78.364-76.306l-10.459-4.014c-18.304-7.352-40.060-17.94-66.433-32.296-4.515-2.417-8.457-4.608-12.114-6.656l-9.499-5.243-7.742 7.332 4.964-8.97c-60.591-33.709-118.322-71.042-130.374-115.585-8.805-32.644-6.598-58.878 6.782-80.238 3.984-6.328 9.418-12.39 17.609-19.64 4.004-3.522 8.192-6.963 12.85-10.035 5.107-3.461 10.378-6.676 15.934-9.646 33.38-17.325 74.482-26.213 102.49-31.436 78.139-14.438 165.511-15.687 241.281-15.687 76.811 0 256.725 0 347.447 47.164 5.7 2.949 11.011 6.123 15.873 9.441 4.474 3.051 8.784 6.205 12.564 9.625 9.356 8.54 15.607 17.141 19.121 26.234v0zM794.59 49.027c6.006 7.803 10.010 14.602 12.645 21.442 11.889 30.965 5.74 77.883 0 95.003-14.259 42.638-54.748 81.282-123.776 118.104l-16.486 8.786 5.189 2.949c-2.983 1.393-5.986 2.826-8.866 4.137-9.724 4.526-18.876 8.56-27.068 12.206l-2.125 0.942c-5.352 2.335-12.564 5.038-20.857 8.11-33.748 12.472-84.758 31.292-92.357 60.148-10.5 40.037 14.565 72.64 38.773 104.239 9.132 11.857 18.549 24.125 25.454 36.392 26.823 47.819 46.556 109.4 50.417 156.891 6.905 85.726-13.421 157.096-58.814 206.39-46.577 50.666-116.401 73.377-197.543 64.039-111.070-12.82-184.959-94.041-192.845-211.919-6.231-93.037 19.816-178.292 79.61-260.619 3.636-5.017 7.313-9.707 11.379-14.868 15.566-19.783 29.008-36.863 26.373-64.141-3.412-35.531-37.731-48.618-65.33-59.124l-10.643-4.116c-19.162-7.721-41.654-18.616-68.64-33.32-3.023-1.618-5.516-3.010-8.090-4.464l6.517-3.481-16.138-9.195c-56.137-32.009-115.4-71.718-129.394-123.51-10.582-39.115-7.313-72.742 9.724-99.857 1.757-2.806 3.902-5.284 6.026-7.823l14.811-18.063-11.379-0.922c2.86-2.294 5.597-4.71 8.703-6.779 5.659-3.85 11.522-7.393 17.834-10.731 35.852-18.575 78.936-27.975 108.23-33.422 79.834-14.786 168.31-15.994 244.999-15.994 78.302 0 261.709 0 356.824 49.416 6.415 3.318 12.421 6.902 17.997 10.67 3.085 2.109 5.802 4.444 8.662 6.656l-11.379 0.881 11.563 14.95zM147.211 270.715l9.499 5.243c3.657 2.068 7.599 4.239 12.114 6.656 26.373 14.356 48.129 24.944 66.433 32.296l10.459 4.014c29.376 11.202 73.747 28.077 78.364 76.306 3.432 35.47-13.891 57.506-31.153 79.439-3.391 4.301-6.905 8.786-10.398 13.598-56.873 78.292-81.653 159.144-75.749 247.184 7.17 107.393 74.155 181.323 174.786 192.955 74.441 8.499 138.117-11.837 180.22-57.608 41.368-44.993 59.896-110.997 53.441-190.867-3.636-44.768-22.41-103.052-47.864-148.495-6.19-10.977-15.137-22.65-23.881-34.016-24.657-32.111-55.361-72.087-42.328-121.872 10.316-39.136 65.106-59.308 105.043-74.094 7.824-2.908 14.729-5.468 19.713-7.639l2.125-0.942c8.090-3.584 17.18-7.598 26.823-12.062 4.188-1.905 8.417-3.891 12.829-6.021 4.167-2.007 8.396-4.055 12.768-6.287 71.275-35.839 112.254-72.107 125.247-110.916 4.76-14.438 9.234-55.089 0.306-78.313-3.514-9.093-9.765-17.694-19.121-26.254-3.8-3.42-8.090-6.553-12.564-9.625-4.862-3.318-10.173-6.492-15.873-9.441-90.702-47.164-270.636-47.164-347.447-47.164-75.769 0-163.142 1.249-241.281 15.687-28.007 5.222-69.11 14.11-102.49 31.436-5.557 2.969-10.827 6.185-15.934 9.646-4.658 3.072-8.846 6.512-12.85 10.035-8.192 7.25-13.626 13.312-17.609 19.64-13.381 21.36-15.587 47.594-6.782 80.238 12.053 44.542 69.784 81.876 130.374 115.585l2.778 1.659z" horiz-adv-x="829" />
<glyph unicode="&#xe60a;" d="M389.171 285.798c-13.722-13.875-13.722-36.301 0-50.125 13.67-13.875 35.891-13.875 49.613 0l196.096 200.038c13.722 13.875 13.722 36.301 0 50.125l-196.096 200.090c-13.722 13.875-35.891 13.875-49.613 0s-13.722-36.25-0.051-50.074l160.819-175.053-160.768-175.002z" />
<glyph unicode="&#xe60b;" d="M512 931.84c-260.147 0-471.040-210.893-471.040-471.040s210.893-471.040 471.040-471.040 471.040 210.893 471.040 471.040-210.893 471.040-471.040 471.040zM512 92.16c-203.622 0-368.64 165.069-368.64 368.64s165.018 368.64 368.64 368.64 368.64-165.069 368.64-368.64-165.018-368.64-368.64-368.64zM604.16 657.92h-184.32v-209.408h-115.2l207.36-195.072 207.36 195.072h-115.2v209.408z" />
<glyph unicode="&#xe60c;" d="M512-73.143c-282.317 0-512 229.683-512 512s229.683 512 512 512 512-229.683 512-512-229.683-512-512-512zM512 925.257c-268.211 0-486.4-218.189-486.4-486.4s218.189-486.4 486.4-486.4 486.4 218.189 486.4 486.4-218.189 486.4-486.4 486.4zM827.93 554.671c0 53.99-39.731 97.434-88.806 97.434-66.483 3.123-134.272 4.326-203.52 4.326h-21.606c-69.12 0-137.037-1.203-203.52-4.326-48.973 0-88.678-43.674-88.678-97.69-2.995-42.726-4.326-85.453-4.198-128.154-0.128-42.726 1.203-85.427 4.070-128.282 0-53.99 39.731-97.792 88.678-97.792 69.837-3.251 141.491-4.685 214.323-4.557 72.96-0.23 144.358 1.203 214.323 4.557 49.075 0 88.806 43.802 88.806 97.792 2.893 42.829 4.198 85.555 4.070 128.41 0.256 42.726-1.075 85.453-3.942 128.282v0zM465.997 308.553v235.802l174.003-117.837-174.003-117.965z" />
<glyph unicode="&#xe60d;" d="M132.198 686.029c-13.875 13.722-36.301 13.722-50.125 0-13.824-13.67-13.824-35.891 0-49.613l404.89-400.896c13.875-13.722 36.25-13.722 50.125 0l404.89 400.896c13.824 13.722 13.875 35.891 0 49.613s-36.352 13.722-50.125 0.051l-379.853-365.619-379.802 365.568z" />
<glyph unicode="&#xe60e;" d="M512-60.655c-275.431 0-499.512 224.081-499.512 499.512s224.081 499.512 499.512 499.512c275.431 0 499.512-224.081 499.512-499.512s-224.081-499.512-499.512-499.512zM512 913.394c-261.669 0-474.537-212.867-474.537-474.537s212.867-474.537 474.537-474.537 474.537 212.867 474.537 474.537-212.867 474.537-474.537 474.537zM549.463 501.296v44.606c0 20.13 4.446 30.32 35.715 30.32h39.212v74.927h-65.436c-80.197 0-106.646-36.764-106.646-99.852v-50.001h-52.699v-74.927h52.674v-224.78h97.18v224.78h66.036l8.891 74.927h-74.927z" />
<glyph unicode="&#xe60f;" d="M852 960h-680c-94.6 0-172-77.4-172-172v-680c0-94.6 77.4-172 172-172h680c94.6 0 172 77.4 172 172v680c0 94.6-77.4 172-172 172zM384 128h-128v448h128v-448zM320 640c-35.346 0-64 28.654-64 64s28.654 64 64 64 64-28.654 64-64-28.654-64-64-64zM832 128h-128v256c0 35.346-28.654 64-64 64s-64-28.654-64-64v-256h-128v448h128v-79.472c26.398 36.264 66.752 79.472 112 79.472 79.53 0 144-71.634 144-160v-288z" />
<glyph unicode="&#xe610;" d="M1024 765.582c-37.676-16.708-78.164-28.002-120.66-33.080 43.372 26 76.686 67.17 92.372 116.23-40.596-24.078-85.556-41.56-133.41-50.98-38.32 40.83-92.922 66.34-153.346 66.34-116.022 0-210.088-94.058-210.088-210.078 0-16.466 1.858-32.5 5.44-47.878-174.6 8.764-329.402 92.4-433.018 219.506-18.084-31.028-28.446-67.116-28.446-105.618 0-72.888 37.088-137.192 93.46-174.866-34.438 1.092-66.832 10.542-95.154 26.278-0.020-0.876-0.020-1.756-0.020-2.642 0-101.788 72.418-186.696 168.522-206-17.626-4.8-36.188-7.372-55.348-7.372-13.538 0-26.698 1.32-39.528 3.772 26.736-83.46 104.32-144.206 196.252-145.896-71.9-56.35-162.486-89.934-260.916-89.934-16.958 0-33.68 0.994-50.116 2.94 92.972-59.61 203.402-94.394 322.042-94.394 386.422 0 597.736 320.124 597.736 597.744 0 9.108-0.206 18.168-0.61 27.18 41.056 29.62 76.672 66.62 104.836 108.748z" />
<glyph unicode="&#xe611;" d="M575.87-64h-191.87v512h-128v176.45l128 0.058-0.208 103.952c0 143.952 39.034 231.54 208.598 231.54h141.176v-176.484h-88.23c-66.032 0-69.206-24.656-69.206-70.684l-0.262-88.324h158.69l-18.704-176.45-139.854-0.058-0.13-512z" />
<glyph unicode="&#xe612;" d="M0 448c0-282.782 229.188-512 512-512 282.75 0 512 229.218 512 512s-229.25 512-512 512c-282.812 0-512-229.218-512-512zM944 448c0-238.594-193.438-432-432-432-238.624 0-432 193.406-432 432s193.376 432 432 432c238.562 0 432-193.406 432-432zM297.376 546.624c-12.5-12.5-12.5-32.75 0-45.25l192-192c12.5-12.5 32.75-12.5 45.25 0l192 192c6.25 6.25 9.374 14.438 9.374 22.626s-3.124 16.376-9.376 22.624c-12.5 12.5-32.75 12.5-45.25 0l-169.374-169.374-169.376 169.376c-12.5 12.498-32.748 12.498-45.248-0.002z" />
<glyph unicode="&#xe613;" d="M737.229 80.998c13.722-13.875 13.722-36.25 0-50.125s-35.891-13.875-49.613 0l-400.896 404.838c-13.722 13.875-13.722 36.301 0 50.125l400.896 404.89c13.722 13.875 35.891 13.875 49.613 0s13.722-36.25 0-50.125l-365.568-379.802 365.568-379.802z" />
<glyph unicode="&#xe614;" d="M286.704 80.998c-13.722-13.875-13.722-36.25 0-50.125s35.891-13.875 49.613 0l400.896 404.838c13.722 13.875 13.722 36.301 0 50.125l-400.896 404.89c-13.722 13.875-35.891 13.875-49.613 0s-13.722-36.25 0-50.125l365.568-379.802-365.568-379.802z" />
<glyph unicode="&#xe615;" d="M0 950.857h932.669v-195.048h-932.669v195.048zM0 536.381h932.669v-195.048h-932.669v195.048zM0 121.905h932.669v-195.048h-932.669v195.048z" horiz-adv-x="951" />
<glyph unicode="&#xe616;" d="M1185.329 950.857h-1154.657c-16.286 0-30.671-13.333-30.671-29.6v-708.533c0-16.533 14.114-29.6 30.671-29.6h1154.657c16.286 0 30.671 13.333 30.671 29.6v708.533c0 16.267-14.114 29.6-30.671 29.6v0zM1129.143 268.19h-1042.286v597.333h1042.286v-597.333zM734.214-73.143c76 1.333 112.643 10.4 78.714 33.333-33.929 23.2-77.357 40.8-78.714 60-0.814 9.867-4.614 120-4.614 120h-243.2c0 0-4.071-110.133-4.614-120-1.357-18.933-44.786-36.8-78.714-60s2.714-32 78.714-33.333h252.429z" horiz-adv-x="1216" />
<glyph unicode="&#xe617;" d="M128 950.857v-896h-42.667v768h-85.333v-813.715c0-45.371 36.915-82.285 82.285-82.285h859.427c45.373 0 82.288 36.915 82.288 82.285v941.715h-896zM256 822.857h341.333v-42.667h-341.333v42.667zM256 396.19h512v-42.667h-512v42.667zM896 140.19h-640v42.667h640v-42.667zM896 566.857h-640v42.667h640v-42.667z" />
<glyph unicode="&#xe618;" d="M663.333-72.132v1021.642l-316-295.074h-347.333v-431.158h347.333l316-295.411zM850.667 103.362c68.333 93.642 109.333 209.853 109.333 335.495 0 125.979-41 241.853-109.333 335.495l-68-51.537c58-79.495 92.667-177.516 92.667-283.958s-34.667-204.463-92.667-283.958l68-51.537z" horiz-adv-x="960" />
<glyph unicode="&#xe619;" d="M488.727-49.87c-256.652 0-465.455 219.229-465.455 488.727s208.803 488.727 465.455 488.727c256.652 0 465.455-219.229 465.455-488.727s-208.803-488.727-465.455-488.727zM488.727 881.039c-230.959 0-418.909-198.377-418.909-442.182s187.951-442.182 418.909-442.182c231.005 0 418.909 198.377 418.909 442.182s-187.904 442.182-418.909 442.182zM398.941 575.747c-2.932 1.722-5.958 2.746-9.402 2.746-9.402 0-17.082-7.773-17.082-17.268l-0.093-297.1c0.093-9.495 7.773-17.268 17.175-17.268 3.537 0 6.47 1.21 9.681 2.932l240.175 142.941c5.679 4.748 9.309 11.916 9.309 19.968s-3.631 15.127-9.309 19.968l-240.454 143.081z" horiz-adv-x="977" />
<glyph unicode="&#xe61a;" d="M679.822 672.19c-1.659 7.733-4.741 13.333-8.296 18.133l-198.4 244.533c-4.504 5.6-9.719 8.267-15.644 11.733-6.874 4-14.459 4.267-22.281 4.267h-379.022c-29.393 0-56.178-25.6-56.178-61.067v-893.867c0-35.733 26.785-69.067 56.178-69.067h576.237c29.393 0 50.252 33.333 50.252 69.067v650.933c0 9.6-0.948 16.533-2.844 25.333v0zM457.481 826.59l137.481-169.333h-137.481v169.333zM75.852 11.924v853.333h305.778v-217.867c0-39.467 31.763-75.467 66.607-75.467h158.578v-560h-530.963z" horiz-adv-x="683" />
<glyph unicode="&#xe61b;" d="M512-60.655c-275.431 0-499.512 224.081-499.512 499.512s224.081 499.512 499.512 499.512c275.431 0 499.512-224.081 499.512-499.512s-224.081-499.512-499.512-499.512zM512 913.394c-261.669 0-474.537-212.867-474.537-474.537s212.867-474.537 474.537-474.537 474.537 212.867 474.537 474.537-212.867 474.537-474.537 474.537zM713.204 651.15h-375.084c-20.505 0-38.412-14.761-38.412-35.016v-375.933c0-20.38 17.908-38.512 38.412-38.512h374.984c20.605 0 36.065 18.257 36.065 38.512v375.933c0.1 20.255-15.46 35.016-35.965 35.016v0zM439.021 276.516h-64.387v200.204h64.387v-200.204zM409.051 507.14h-0.475c-20.605 0-33.942 15.335-33.942 34.541 0 19.556 13.687 34.541 34.766 34.541s33.967-14.86 34.416-34.541c0-19.206-13.337-34.541-34.766-34.541v0zM674.341 276.516h-64.387v109.468c0 26.224-9.366 44.132-32.668 44.132-17.783 0-28.322-12.063-33.018-23.777-1.748-4.196-2.223-9.94-2.223-15.785v-114.039h-64.387v200.204h64.387v-27.873c9.366 13.337 24.002 32.543 58.068 32.543 42.259 0 74.228-27.873 74.228-87.914v-116.961z" />
<glyph unicode="&#xe61c;" d="M983.309 207.584c-42.74 43.636-164.226 125.382-243.851 125.382-18.443 0-34.543-4.073-47.716-12.509-38.934-24.727-69.965-43.927-84.894-43.927-8.197 0-16.979 7.273-36.3 23.855l-3.22 2.909c-53.571 46.255-64.988 58.182-85.772 79.709l-5.269 5.527c-3.806 3.782-7.026 7.273-10.246 10.473-18.15 18.618-31.323 32-77.868 84.364l-2.049 2.327c-22.248 25.018-36.885 41.309-37.763 53.236-0.878 11.636 9.368 30.545 35.421 65.745 31.616 42.473 32.787 94.836 3.806 155.636-23.126 48-60.89 93.964-94.262 134.4l-2.927 3.491c-28.688 34.909-62.061 52.364-99.238 52.364-41.276 0-75.527-22.109-93.676-33.745-1.464-0.873-2.927-2.036-4.391-2.909-40.691-25.6-70.257-60.8-81.381-96.582-16.686-53.818-27.81-123.636 52.107-268.8 69.086-125.673 131.732-210.036 231.264-311.564 93.676-95.418 135.245-126.255 228.336-193.164 103.63-74.473 203.161-117.236 272.832-117.236 64.695 0 115.632 0 188.231 86.982 76.112 91.345 44.496 147.2-1.171 194.036v0zM949.644 44.966c-58.548-70.4-92.213-70.4-153.102-70.4-59.426 0-151.639 40.727-246.486 108.509-90.749 65.164-131.147 95.127-222.189 187.927-96.311 98.036-156.908 179.782-223.652 301.091-70.55 128.291-62.646 184.436-48.302 230.691 7.611 24.727 30.445 51.2 61.475 70.4 1.464 0.873 2.927 2.036 4.684 2.909 15.515 9.891 41.276 26.473 69.379 26.473 23.419 0 44.204-11.636 64.11-35.782l2.927-3.491c74.648-90.764 132.903-171.055 88.993-230.4-31.030-41.6-47.424-69.818-44.789-98.909 2.342-28.218 21.37-49.455 50.058-81.455l2.049-2.327c47.131-52.945 60.597-66.909 79.332-85.818 3.22-3.2 6.44-6.691 10.246-10.473l5.269-5.527c21.663-22.4 33.665-34.618 88.7-82.618l3.22-2.909c23.419-20.364 40.691-35.2 65.866-35.2 26.054 0 54.742 16.291 109.192 50.909 5.562 3.491 13.466 5.527 23.419 5.527 63.524 0 173.009-72.145 211.357-111.418 35.129-35.491 52.693-62.255-1.756-127.709v0z" horiz-adv-x="1071" />
<glyph unicode="&#xe61d;" d="M2.875 950.857v-1024h1542.707v1024h-1542.707zM774.228 391.257l-654.044 495.6h1308.087l-654.044-495.6zM67.154-9.143v855.6l462.41-350.4-273.59-309.2 8.035-8 316.978 278.4 193.24-146.4 193.24 146.4 316.978-278.4 8.035 8-273.59 309.6 462.41 350v-855.6h-1414.148z" horiz-adv-x="1609" />
<glyph unicode="&#xe61e;" d="M512-60.655c-275.431 0-499.512 224.081-499.512 499.512s224.081 499.512 499.512 499.512c275.431 0 499.512-224.081 499.512-499.512s-224.081-499.512-499.512-499.512zM512 913.394c-261.669 0-474.537-212.867-474.537-474.537s212.867-474.537 474.537-474.537 474.537 212.867 474.537 474.537-212.867 474.537-474.537 474.537zM799.22 597.877c-21.179-9.016-43.807-15.11-67.659-17.908 24.351 14.061 43.083 36.29 51.849 62.764-22.753-12.987-47.953-22.478-74.852-27.523-21.554 22.128-52.224 35.94-86.041 35.94-65.111 0-117.81-50.8-117.81-113.439 0-8.891 0.974-17.558 3.047-25.875-97.979 4.695-184.869 49.876-242.913 118.584-10.090-16.734-15.934-36.29-15.934-57.019 0-39.337 20.93-74.103 52.574-94.483-19.481 0.475-37.738 5.62-53.548 14.161v-1.399c0-55.021 40.66-100.802 94.558-111.216-9.865-2.572-20.33-3.971-31.045-3.971-7.543 0-14.96 0.699-22.153 2.098 14.96-45.081 58.543-77.849 110.142-78.798-40.286-30.445-91.161-48.578-146.407-48.578-9.491 0-18.857 0.574-28.123 1.648 51.974-32.543 113.914-51.275 180.349-51.275 216.988 0 335.547 172.906 335.547 322.885 0 4.92-0.125 9.84-0.375 14.636 23.003 16.034 42.983 35.94 58.793 58.768v0z" />
</font>
</defs>
</svg>
